<svg width="492" height="492" xmlns="http://www.w3.org/2000/svg">

 <g>
  <title>background</title>
  <rect fill="none" id="canvas_background" height="602" width="802" y="-1" x="-1"/>
 </g>
 <g>
  <title>Layer 1</title>
  <g stroke="null" transform="rotate(90 245.9999542236328,244.9999694824219) " id="svg_1">
   <g stroke="null" id="svg_2">
    <path stroke="null" id="svg_3" d="m453.69309,206.41798l0.73054,0.168l-313.1643,0l98.44742,-103.724c4.82078,-5.064 7.46517,-11.924 7.46517,-19.124c0,-7.2 -2.64439,-14.012 -7.46517,-19.088l-15.31844,-16.112c-4.81698,-5.064 -11.23581,-7.864 -18.08078,-7.864c-6.84878,0 -13.27142,2.78 -18.08839,7.844l-168.75776,177.396c-4.836,5.084 -7.48039,11.856 -7.46137,19.06c-0.01902,7.244 2.62537,14.02 7.46137,19.096l168.75776,177.412c4.81698,5.06 11.23581,7.844 18.08839,7.844c6.84498,0 13.26381,-2.788 18.08078,-7.844l15.31844,-16.112c4.82078,-5.056 7.46517,-11.808 7.46517,-19.008c0,-7.196 -2.64439,-13.592 -7.46517,-18.652l-99.55844,-104.304l313.89484,0c14.10468,0 25.95688,-12.78 25.95688,-27.6l0,-22.788c0,-14.82 -12.20224,-26.6 -26.30693,-26.6z"/>
   </g>
  </g>
  <g id="svg_4"/>
  <g id="svg_5"/>
  <g id="svg_6"/>
  <g id="svg_7"/>
  <g id="svg_8"/>
  <g id="svg_9"/>
  <g id="svg_10"/>
  <g id="svg_11"/>
  <g id="svg_12"/>
  <g id="svg_13"/>
  <g id="svg_14"/>
  <g id="svg_15"/>
  <g id="svg_16"/>
  <g id="svg_17"/>
  <g id="svg_18"/>
 </g>
</svg>